<svg xmlns="http://www.w3.org/2000/svg" width="512" height="453" class="icon icon-tabler icon-tabler-brand-bluesky" viewBox="0 0 512 453">
<path d="M121.531 44.2026C175.755 85.1673 234.088 168.213 255.499 212.78C276.909 168.213 335.245 85.1673 389.469 44.2026C428.603 14.6517 492 -8.2195 492 64.5474C492 79.075 483.721 186.631 478.86 204.096C461.98 264.793 400.452 280.276 345.725 270.908C441.388 287.288 465.721 341.539 413.165 395.793C313.354 498.835 269.705 369.941 258.53 336.914C255.306 327.406 255.767 327.188 252.468 336.914C241.292 369.941 197.647 498.835 97.8359 395.793C45.2793 341.539 69.612 287.288 165.275 270.908C110.548 280.276 49.0199 264.793 32.1396 204.096C27.2794 186.631 19 79.075 19 64.5474C19 -8.2195 82.4052 14.6517 121.531 44.2026Z" fill="none" stroke-width="15" stroke="currentColor" stroke-linecap="round" stroke-linejoin="round"/>
</svg>
